<svg height="506pt" viewBox="0 0 506.54036 506" width="506pt" xmlns="http://www.w3.org/2000/svg"><path d="m55.4375 389.660156 49.421875-337.738281c.863281-5.882813 2.332031-11.660156 4.386719-17.242187l-48.414063 2.457031c-35.300781 1.792969-62.460937 31.859375-60.671875 67.160156l17.304688 340.894531c1.726562 34.011719 29.785156 60.714844 63.839844 60.753906 1.105468 0 2.210937-.027343 3.324218-.082031l130.351563-6.617187-87.464844-12.800782c-46.597656-6.875-78.839844-50.171874-72.078125-96.785156zm0 0"/><path d="m493.921875 63.113281c-10.105469-13.644531-25.253906-22.683593-42.0625-25.097656l-253.300781-37.0625c-34.972656-5.121094-67.476563 19.082031-72.59375 54.058594l-49.421875 337.734375c-4.777344 34.886718 19.265625 67.171875 54.058593 72.589844l253.304688 37.066406c34.886719 4.78125 67.171875-19.261719 72.589844-54.058594l49.425781-337.734375c2.503906-16.796875-1.816406-33.902344-12-47.496094zm-118.664063 222.027344c-30.289062 22.554687-72.203124 41.691406-87.664062 48.40625-3.703125 1.609375-8 .980469-11.089844-1.625-12.886718-10.859375-47.558594-41.203125-70.117187-71.492187-54.070313-72.59375 42.710937-144.667969 96.777343-72.078126 72.601563-54.058593 144.671876 42.730469 72.066407 96.789063zm0 0"/></svg>