<svg width="20" height="20" viewBox="0 0 20 20" fill="none" xmlns="http://www.w3.org/2000/svg">
<path d="M8.82813 7.07031C8.50484 7.07031 8.24219 7.33297 8.24219 7.65625V8.82812C8.24219 9.15141 8.50484 9.41406 8.82813 9.41406H9.41406V7.07031H8.82813Z" fill="#22A49C"/>
<path d="M11.1719 10.5859H10.5859V12.9297H11.1719C11.4952 12.9297 11.7578 12.667 11.7578 12.3438V11.1719C11.7578 10.8486 11.4952 10.5859 11.1719 10.5859Z" fill="#22A49C"/>
<path d="M10 3.55469C6.44606 3.55469 3.55469 6.44605 3.55469 10C3.55469 13.5539 6.44606 16.4453 10 16.4453C13.5539 16.4453 16.4453 13.5539 16.4453 10C16.4453 6.44605 13.5539 3.55469 10 3.55469ZM11.1719 9.41406C12.1412 9.41406 12.9297 10.2026 12.9297 11.1719V12.3438C12.9297 13.313 12.1412 14.1016 11.1719 14.1016H10.5859V14.6875C10.5859 15.0114 10.3239 15.2734 10 15.2734C9.67613 15.2734 9.41406 15.0114 9.41406 14.6875V14.1016H8.82813C7.85883 14.1016 7.07031 13.313 7.07031 12.3438C7.07031 12.0199 7.33238 11.7578 7.65625 11.7578C7.98012 11.7578 8.24219 12.0199 8.24219 12.3438C8.24219 12.667 8.50484 12.9297 8.82813 12.9297H9.41406V10.5859H8.82813C7.85883 10.5859 7.07031 9.79742 7.07031 8.82812V7.65625C7.07031 6.68695 7.85883 5.89844 8.82813 5.89844H9.41406V5.3125C9.41406 4.98863 9.67613 4.72656 10 4.72656C10.3239 4.72656 10.5859 4.98863 10.5859 5.3125V5.89844H11.1719C12.1412 5.89844 12.9297 6.68695 12.9297 7.65625C12.9297 7.98012 12.6676 8.24219 12.3438 8.24219C12.0199 8.24219 11.7578 7.98012 11.7578 7.65625C11.7578 7.33297 11.4952 7.07031 11.1719 7.07031H10.5859V9.41406H11.1719Z" fill="#22A49C"/>
<path d="M10 0C4.50742 0 0 4.50742 0 10C0 15.4926 4.50742 20 10 20C15.4926 20 20 15.4926 20 10C20 4.50742 15.4926 0 10 0ZM10 17.6172C5.8 17.6172 2.38281 14.2 2.38281 10C2.38281 5.8 5.8 2.38281 10 2.38281C14.2 2.38281 17.6172 5.8 17.6172 10C17.6172 14.2 14.2 17.6172 10 17.6172Z" fill="#22A49C"/>
</svg>
