<svg width="20" height="20" viewBox="0 0 20 20" fill="none" xmlns="http://www.w3.org/2000/svg">
<path d="M7.32966 14.7387C7.23517 14.7779 7.13165 14.7998 7.02298 14.7998C6.5806 14.7998 6.22197 14.4412 6.22197 13.9988C6.22197 13.8878 6.24462 13.782 6.28548 13.6859C5.75986 13.0675 5.74685 12.1601 6.24654 11.5274C6.23107 11.4653 6.22197 11.4006 6.22197 11.3338C6.22197 11.2728 6.22939 11.2136 6.24228 11.1566H5.32122C4.38118 11.1566 3.61641 10.3918 3.61641 9.45173V9.11618H0.919611C0.41254 9.11618 0 9.52872 0 10.0358V17.9618C0 18.4689 0.41254 18.8814 0.919611 18.8814H9.25142C9.75846 18.8814 10.171 18.4689 10.171 17.9618V17.58L7.32966 14.7387ZM3.14801 17.4648C2.70563 17.4648 2.34704 17.1062 2.34704 16.6639C2.34704 16.2215 2.70567 15.8629 3.14801 15.8629C3.59036 15.8629 3.94899 16.2215 3.94899 16.6639C3.94899 17.1062 3.5904 17.4648 3.14801 17.4648ZM3.14801 14.7998C2.70563 14.7998 2.34704 14.4412 2.34704 13.9988C2.34704 13.5565 2.70567 13.1978 3.14801 13.1978C3.59036 13.1978 3.94899 13.5565 3.94899 13.9988C3.94899 14.4412 3.5904 14.7998 3.14801 14.7998ZM3.14801 12.1347C2.70563 12.1347 2.34704 11.7761 2.34704 11.3338C2.34704 10.8914 2.70567 10.5328 3.14801 10.5328C3.59036 10.5328 3.94899 10.8914 3.94899 11.3338C3.94899 11.7761 3.5904 12.1347 3.14801 12.1347ZM7.02298 17.4648C6.5806 17.4648 6.22197 17.1062 6.22197 16.6639C6.22197 16.2215 6.58056 15.8629 7.02298 15.8629C7.46537 15.8629 7.82396 16.2215 7.82396 16.6639C7.82396 17.1062 7.46537 17.4648 7.02298 17.4648Z" fill="#22A49C"/>
<path d="M13.6528 0.60611H5.32094C4.81391 0.60611 4.40137 1.01865 4.40137 1.52572V9.45175H4.40141C4.40141 9.95882 4.81395 10.3714 5.32098 10.3714H7.38516L11.9836 5.77287C12.6483 5.10822 13.7299 5.10815 14.3946 5.77287L14.5724 5.95065V1.52572C14.5724 1.01865 14.1599 0.60611 13.6528 0.60611ZM7.69512 8.46549C7.3679 8.79276 6.83735 8.79276 6.51008 8.46549C6.18285 8.13827 6.18285 7.60772 6.51008 7.28045C6.83735 6.95323 7.3679 6.95323 7.69512 7.28045C8.02239 7.60768 8.02239 8.13827 7.69512 8.46549ZM7.69512 3.69701C7.3679 4.02424 6.83735 4.02424 6.51008 3.69701C6.18285 3.36975 6.18285 2.8392 6.51008 2.51197C6.83735 2.18474 7.3679 2.18474 7.69512 2.51197C8.02239 2.8392 8.02239 3.36979 7.69512 3.69701ZM10.0794 6.08127C9.75216 6.4085 9.22161 6.4085 8.89438 6.08127C8.56712 5.75401 8.56712 5.22346 8.89438 4.89623C9.22161 4.56901 9.75216 4.56901 10.0794 4.89623C10.4067 5.22346 10.4067 5.75405 10.0794 6.08127ZM12.4636 3.69701C12.1364 4.02424 11.6058 4.02424 11.2786 3.69701C10.9514 3.36979 10.9514 2.8392 11.2786 2.51197C11.6058 2.18474 12.1364 2.18474 12.4636 2.51197C12.7909 2.8392 12.7909 3.36979 12.4636 3.69701Z" fill="#22A49C"/>
<path d="M19.7309 12.2196L13.8395 6.32811C13.6602 6.14881 13.4248 6.0592 13.1893 6.0592C12.9538 6.0592 12.7183 6.14881 12.5391 6.32811L6.93447 11.9326C6.57588 12.2912 6.57588 12.8746 6.93447 13.2331L12.826 19.1246C12.826 19.1246 12.826 19.1246 12.826 19.1246C12.9996 19.2983 13.2305 19.3939 13.4762 19.3939C13.7218 19.3939 13.9527 19.2983 14.1264 19.1246L19.7309 13.52C20.0895 13.1615 20.0895 12.5781 19.7309 12.2196ZM11.2091 13.0935C10.8673 13.4354 10.313 13.4354 9.97116 13.0935C9.62928 12.7516 9.62928 12.1974 9.97116 11.8555C10.313 11.5137 10.8673 11.5137 11.2091 11.8555C11.551 12.1974 11.551 12.7516 11.2091 13.0935ZM12.4619 9.36479C12.8038 9.02296 13.358 9.02296 13.6999 9.36479C14.0417 9.70667 14.0417 10.2609 13.6999 10.6028C13.358 10.9446 12.8038 10.9446 12.4619 10.6028C12.12 10.2609 12.12 9.70667 12.4619 9.36479ZM14.2036 16.088C13.8617 16.4298 13.3075 16.4298 12.9656 16.088C12.6237 15.7461 12.6237 15.1919 12.9656 14.85C13.3075 14.5082 13.8617 14.5082 14.2036 14.85C14.5454 15.1918 14.5454 15.7461 14.2036 16.088ZM16.6943 13.5972C16.3525 13.9391 15.7982 13.9391 15.4564 13.5972C15.1145 13.2554 15.1145 12.7011 15.4564 12.3592C15.7982 12.0174 16.3525 12.0174 16.6943 12.3592C17.0362 12.7011 17.0362 13.2553 16.6943 13.5972Z" fill="#22A49C"/>
</svg>
