<svg width="24" height="24" viewBox="0 0 24 24" fill="none" xmlns="http://www.w3.org/2000/svg">
<g clip-path="url(#clip0)">
<path d="M21.5 13.5C22.878 13.5 24 12.378 24 11L24 3C24 1.62201 22.878 0.500011 21.5 0.500011L18.5 0.500011C17.937 0.500011 17.419 0.689995 17 1.00603L17 13.5L21.5 13.5Z" fill="#FF5151"/>
<path d="M1.93219e-05 9.74998C1.92693e-05 10.351 0.238003 10.911 0.651019 11.324C0.184003 11.835 -0.0539827 12.52 0.011034 13.233C0.128033 14.504 1.27305 15.5 2.61902 15.5L8.79602 15.5C8.49002 16.429 8.00003 18.132 8.00003 19.5C8.00003 21.669 9.84302 23.5 11 23.5C12.039 23.5 12.781 22.915 12.813 22.891C12.931 22.796 13 22.652 13 22.5L13 19.109L15.88 12.87L16 12.809L16 2.09099C15.186 1.70699 14.156 1.49999 13.5 1.49999L4.321 1.49999C3.232 1.49999 2.27899 2.234 2.05502 3.24697C1.94004 3.76799 2.00702 4.29298 2.236 4.74899C1.49702 5.12099 1 5.882 1 6.74999C1 7.10399 1.081 7.44298 1.23499 7.74997C0.496004 8.12197 1.93977e-05 8.88298 1.93219e-05 9.74998Z" fill="#FF5151"/>
</g>
<defs>
<clipPath id="clip0">
<rect width="24" height="24" fill="white" transform="translate(24 24) rotate(-180)"/>
</clipPath>
</defs>
</svg>
