<svg width="24" height="24" viewBox="0 0 24 24" fill="none" xmlns="http://www.w3.org/2000/svg">
<path d="M2.49998 10.5C1.122 10.5 0 11.622 0 13L0 21C0 22.378 1.122 23.5 2.49998 23.5H5.49998C6.063 23.5 6.58097 23.31 6.99998 22.994L6.99998 10.5H2.49998Z" fill="#41C235"/>
<path d="M24 14.25C24 13.649 23.762 13.089 23.349 12.676C23.816 12.165 24.054 11.48 23.989 10.767C23.872 9.496 22.727 8.5 21.381 8.5L15.204 8.5C15.51 7.57098 16 5.86801 16 4.50001C16 2.33101 14.157 0.500031 13 0.500031C11.961 0.500031 11.219 1.08503 11.187 1.10903C11.069 1.20405 11 1.34805 11 1.50001V4.891L8.12 11.13L8 11.191V21.909C8.81398 22.293 9.84397 22.5 10.5 22.5H19.679C20.768 22.5 21.721 21.766 21.945 20.753C22.06 20.232 21.993 19.707 21.764 19.251C22.503 18.879 23 18.118 23 17.25C23 16.896 22.919 16.557 22.765 16.25C23.504 15.878 24 15.117 24 14.25Z" fill="#41C235"/>
</svg>
