<?xml version="1.0" encoding="iso-8859-1"?>
<!-- Generator: Adobe Illustrator 19.0.0, SVG Export Plug-In . SVG Version: 6.00 Build 0)  -->
<svg version="1.1" id="Capa_1" xmlns="http://www.w3.org/2000/svg" xmlns:xlink="http://www.w3.org/1999/xlink" x="0px" y="0px"
	 viewBox="0 0 464 464" style="enable-background:new 0 0 464 464;" xml:space="preserve">
<g>
	<path style="fill:#EFF2FA;" d="M40,200h128v152H40V200z"/>
	<path style="fill:#EFF2FA;" d="M168,200h128v152H168V200z"/>
	<path style="fill:#EFF2FA;" d="M296,200h128v152H296V200z"/>
</g>
<path style="fill:#EE2849;" d="M0,112v352h464V112H0z M48,352V200h112v152H48z M176,352V200h112v152H176z M304,352V200h112v152H304z
	"/>
<path style="fill:#FFD33F;" d="M328,64h-72L232,0l-24,64h-72l56,40l-16,64l56-32l56,32l-16-64L328,64z"/>
<g>
	<path style="fill:#EE2849;" d="M104,328c-4.418,0-8-3.582-8-8c0.039-28.45,8.419-56.264,24.104-80H80v8c0,4.418-3.582,8-8,8
		s-8-3.582-8-8v-16c0-4.418,3.582-8,8-8h64c4.418-0.002,8.001,3.579,8.003,7.997c0.001,1.819-0.618,3.583-1.755,5.003l-2.016,2.512
		C121.988,262.376,112.036,290.75,112,320C112,324.418,108.418,328,104,328z"/>
	<path style="fill:#EE2849;" d="M232,328c-4.418,0-8-3.582-8-8c0.039-28.45,8.419-56.264,24.104-80H208v8c0,4.418-3.582,8-8,8
		s-8-3.582-8-8v-16c0-4.418,3.582-8,8-8h64c4.418-0.002,8.001,3.579,8.003,7.997c0.001,1.819-0.618,3.583-1.755,5.003l-2.016,2.512
		C249.988,262.376,240.036,290.75,240,320C240,324.418,236.418,328,232,328z"/>
	<path style="fill:#EE2849;" d="M360,328c-4.418,0-8-3.582-8-8c0.039-28.45,8.419-56.264,24.104-80H336v8c0,4.418-3.582,8-8,8
		s-8-3.582-8-8v-16c0-4.418,3.582-8,8-8h64c4.418-0.002,8.001,3.579,8.003,7.997c0.001,1.819-0.618,3.583-1.755,5.003l-2.016,2.512
		C377.988,262.376,368.036,290.75,368,320C368,324.418,364.418,328,360,328z"/>
</g>
<circle style="fill:#FAA41B;" cx="72" cy="408" r="24"/>
<circle style="fill:#FFD33F;" cx="152" cy="408" r="24"/>
<circle style="fill:#FAA41B;" cx="232" cy="408" r="24"/>
<circle style="fill:#FFD33F;" cx="312" cy="408" r="24"/>
<g>
	<circle style="fill:#FAA41B;" cx="392" cy="408" r="24"/>
	<path style="fill:#FAA41B;" d="M144,88h-40L84,48L64,88H24l32,32l-8,32l36-16l36,16l-8-32L144,88z"/>
	<path style="fill:#FAA41B;" d="M440,88h-40l-20-40l-20,40h-40l32,32l-8,32l36-16l36,16l-8-32L440,88z"/>
</g>
<g>
</g>
<g>
</g>
<g>
</g>
<g>
</g>
<g>
</g>
<g>
</g>
<g>
</g>
<g>
</g>
<g>
</g>
<g>
</g>
<g>
</g>
<g>
</g>
<g>
</g>
<g>
</g>
<g>
</g>
</svg>
