<svg width="24" height="24" viewBox="0 0 24 24" fill="none" xmlns="http://www.w3.org/2000/svg">
<path d="M1.5 12.7355V21.7355C1.5 22.5635 2.1735 23.2355 3 23.2355H10.5V12.7355H1.5Z" fill="white"/>
<path d="M22.5 6.73559H17.754C18.0945 6.50309 18.387 6.27209 18.591 6.06509C19.8015 4.84859 19.8015 2.86859 18.591 1.65209C17.415 0.467091 15.366 0.470091 14.1915 1.65209C13.5405 2.30459 11.8155 4.96109 12.054 6.73559H11.946C12.183 4.96109 10.458 2.30459 9.8085 1.65209C8.6325 0.470091 6.5835 0.470091 5.409 1.65209C4.2 2.86859 4.2 4.84859 5.4075 6.06509C5.613 6.27209 5.9055 6.50309 6.246 6.73559H1.5C0.6735 6.73559 0 7.40909 0 8.23559V10.4856C0 10.8996 0.336 11.2356 0.75 11.2356H10.5V8.23559H13.5V11.2356H23.25C23.664 11.2356 24 10.8996 24 10.4856V8.23559C24 7.40909 23.328 6.73559 22.5 6.73559ZM10.4115 6.68609C10.4115 6.68609 10.3485 6.73559 10.134 6.73559C9.0975 6.73559 7.119 5.65859 6.4725 5.00759C5.844 4.37459 5.844 3.34259 6.4725 2.70959C6.777 2.40359 7.1805 2.23559 7.6095 2.23559C8.037 2.23559 8.4405 2.40359 8.745 2.70959C9.756 3.72659 10.761 6.32459 10.4115 6.68609ZM13.8645 6.73559C13.6515 6.73559 13.5885 6.68759 13.5885 6.68609C13.239 6.32459 14.244 3.72659 15.255 2.70959C15.8595 2.09909 16.917 2.09609 17.5275 2.70959C18.1575 3.34259 18.1575 4.37459 17.5275 5.00759C16.881 5.65859 14.9025 6.73559 13.8645 6.73559Z" fill="white"/>
<path d="M13.5 12.7355V23.2355H21C21.828 23.2355 22.5 22.5635 22.5 21.7355V12.7355H13.5Z" fill="white"/>
</svg>
