<?xml version="1.0" encoding="utf-8"?>
<!-- Generator: Adobe Illustrator 24.1.2, SVG Export Plug-In . SVG Version: 6.00 Build 0)  -->
<svg version="1.1" xmlns="http://www.w3.org/2000/svg" xmlns:xlink="http://www.w3.org/1999/xlink" x="0px" y="0px"
	 viewBox="0 0 298.2 298.2" style="enable-background:new 0 0 298.2 298.2;" xml:space="preserve">
<style type="text/css">
	.st0{display:none;}
	.st1{display:inline;}
	.st2{fill:none;}
	.st3{fill:#ECF0F1;}
	.st4{fill:#E64C3C;}
	.st5{fill:#C03A2B;}
</style>
<g id="Capa_1" class="st0">
	<g class="st1">
		<path d="M88.5,247.6c-11.4-3.1-20.8-11.7-24.6-23.4l-31-95.5c-1.2-3.8-1.8-7.7-1.7-11.5l-19.9,14.1c-8.9,6.3-11,18.7-4.7,27.6
			l58.1,82c3.8,5.4,10,8.3,16.2,8.3C83.4,249.1,86,248.6,88.5,247.6z M27.6,152.6l-7.3-3.5l-1.5,1.1l4.1,5.8l-3.4,2.4L9.4,143.9
			l3.4-2.4l4,5.6l1.1-0.8l-0.8-7.9l4.2-2.9l0.1,9.7l10.4,4.5L27.6,152.6z"/>
		<path d="M60.6,98.8c-10.4,3.4-16.1,14.6-12.7,25l31,95.5c2.7,8.3,10.5,13.7,18.9,13.7c2,0,4.1-0.3,6.1-1l-0.1,0
			c-12.4-5.4-21.1-17.7-21.1-32.2V99.3c0-2.8,0.5-5.5,1.1-8.1L60.6,98.8z M68.8,124.9l-6-5.4l-1.8,0.6l2.3,6.7l-3.9,1.3l-5.7-16.6
			l3.9-1.3l2.2,6.5l1.3-0.5l1.4-7.8l4.8-1.7l-2.6,9.3l8.7,7.2L68.8,124.9z"/>
		<polyline class="st2" points="128.6,61.7 128.6,61.7 128.8,61.7 		"/>
		<path d="M98.6,99.3v100.5c0,10.5,8.1,18.8,18.5,19.3c-3-2.8-5.5-6.2-7.4-9.9c-4.3-8.5-5.1-18.2-2.1-27.2l31.1-95.7
			c0.8-2.4,1.9-4.1,3.1-7.1h-23.4C107.4,79.1,98.6,88.4,98.6,99.3z M124,107.8h-5l-3.9-6.9h-2.7v6.9h-4V90h4v6.9h2.2l3.9-6.9h5.1
			l-5.5,8.1L124,107.8z"/>
		<path d="M153.7,91.3l-31,95.5c-3.4,10.3,2.3,21.5,12.6,24.9c-1.7-3.2-2.8-6.7-3.5-10.4c-1.6-9.4,0.5-18.8,6-26.6l58.1-82
			c1.8-2.5,3.8-4.7,6.1-6.6l-23.4-7.6c-2-0.7-4.1-1-6.1-1C164.2,77.6,156.4,83,153.7,91.3z M174.9,108.2l-3.9-1.4l0.2-3.6l-5.2-1.9
			l-2.1,2.9l-3.9-1.4l11.4-14.6l4.1,1.5L174.9,108.2z"/>
		<polygon points="171.5,100 172,93.4 171.9,93.4 168,98.7 		"/>
		<path d="M289.8,135.1l-53.4-37.8c-3.5-2.5-7.5-3.6-11.4-3.6c-6.2,0-12.4,2.9-16.2,8.3l-58.1,81.9c-6.3,8.9-4.2,21.3,4.7,27.6
			l53.4,37.8c3.5,2.5,7.5,3.6,11.4,3.6c6.2,0,12.4-2.9,16.2-8.3l58.1-81.9C300.8,153.8,298.7,141.4,289.8,135.1z M225.4,101.8
			l3.6,2.5l-5.5,17.6l-3.4-2.4l1.2-3.4l-4.5-3.2l-2.8,2.2l-3.4-2.4L225.4,101.8z M241.9,145.8c19.5,48-4.8,61.2-16.3,57.6
			c-6.6-2.1-9.6-6.6-10.6-11.6l-7.5,12.5l-9.3-6.6l8.9-10.7c-5,0.5-10-1.3-14.1-6.7C185.6,170.5,190.1,143.3,241.9,145.8z"/>
		<polygon points="222.3,113.1 224.5,106.9 224.4,106.9 219.3,111 		"/>
	</g>
</g>
<g id="Layer_3">
	<g>
		<path class="st3" d="M298.1,149.1c0,8.9-0.8,17.8-2.4,26.5c-3.8,21-12.1,40.9-24.2,58.4c-10.2,14.6-22.9,27.3-37.5,37.5
			c-17.5,12.2-37.5,20.4-58.4,24.2c-17.5,3.2-35.5,3.2-53.1,0c-21-3.8-40.9-12.1-58.4-24.2c-14.6-10.2-27.3-22.9-37.5-37.5
			c-35.5-51.1-35.5-118.9,0-170C36.7,49.5,49.4,36.8,64,26.6c17.5-12.2,37.5-20.4,58.4-24.2c17.5-3.2,35.5-3.2,53.1,0
			c21,3.8,40.9,12.1,58.4,24.2c14.6,10.2,27.3,22.9,37.5,37.5c12.2,17.5,20.4,37.5,24.2,58.4C297.3,131.3,298.1,140.2,298.1,149.1z"
			/>
		<g>
			<path class="st4" d="M182.1,3.7l-14.8,44.2c-12.1-2.2-24.5-2.2-36.6,0L116,3.7C137.7-1.2,160.3-1.2,182.1,3.7z"/>
			<path class="st4" d="M90.4,64.6c-10.1,7-18.8,15.8-25.9,25.9L22.9,69.7c11.9-18.9,27.9-34.8,46.7-46.7L90.4,64.6z"/>
			<path class="st4" d="M46.2,149.1c0,6.1,0.5,12.3,1.6,18.3L3.6,182.1c-4.9-21.8-4.9-44.3,0-66.1l44.2,14.8
				C46.7,136.8,46.2,142.9,46.2,149.1z"/>
			<path class="st4" d="M90.4,233.5l-20.8,41.7c-18.9-11.9-34.8-27.9-46.7-46.7l41.7-20.8C71.6,217.8,80.3,226.5,90.4,233.5z"/>
			<path class="st4" d="M182.1,294.5c-21.8,4.9-44.3,4.9-66.1,0l14.8-44.2c12.1,2.2,24.5,2.2,36.6,0L182.1,294.5z"/>
			<path class="st4" d="M275.2,228.5c-11.9,18.9-27.9,34.8-46.7,46.7l-20.8-41.7c10.1-7,18.8-15.8,25.9-25.9L275.2,228.5z"/>
			<path class="st4" d="M298.1,149.1c0,11.1-1.2,22.2-3.7,33.1l-44.2-14.8c2.2-12.1,2.2-24.5,0-36.6l44.2-14.8
				C296.8,126.9,298.1,138,298.1,149.1z"/>
			<path class="st4" d="M250.2,130.8c2.2,12.1,2.2,24.5,0,36.6c-2.6,14.5-8.3,28.2-16.7,40.3c-7,10.1-15.8,18.8-25.9,25.9
				c-12.1,8.4-25.8,14.1-40.3,16.7c-12.1,2.2-24.5,2.2-36.6,0c-14.5-2.6-28.2-8.3-40.3-16.7c-10.1-7-18.8-15.8-25.9-25.9
				c-24.5-35.2-24.5-82,0-117.2c7-10.1,15.8-18.8,25.9-25.9c12.1-8.4,25.8-14.1,40.3-16.7c12.1-2.2,24.5-2.2,36.6,0
				c14.5,2.6,28.2,8.3,40.3,16.7l20.8-41.7c18.9,11.9,34.8,27.9,46.7,46.7l-41.7,20.8C241.9,102.6,247.5,116.3,250.2,130.8z"/>
		</g>
		<path class="st5" d="M251.8,149.1c0,6.1-0.5,12.3-1.6,18.3c-2.6,14.5-8.3,28.2-16.7,40.3c-7,10.1-15.8,18.8-25.9,25.9
			c-12.1,8.4-25.8,14.1-40.3,16.7c-12.1,2.2-24.5,2.2-36.6,0c-14.5-2.6-28.2-8.3-40.3-16.7c-10.1-7-18.8-15.8-25.9-25.9
			c-24.5-35.2-24.5-82,0-117.2c7-10.1,15.8-18.8,25.9-25.9c12.1-8.4,25.8-14.1,40.3-16.7c12.1-2.2,24.5-2.2,36.6,0
			c14.5,2.6,28.2,8.3,40.3,16.7c10.1,7,18.8,15.8,25.9,25.9c8.4,12.1,14.1,25.8,16.7,40.3C251.3,136.8,251.8,142.9,251.8,149.1z"/>
		<g>
			<path class="st5" d="M154.1,15.4h-10.3c-2.8,0-5.1,2.3-5.1,5.1s2.3,5.1,5.1,5.1h10.3c2.8,0,5.1-2.3,5.1-5.1S157,15.4,154.1,15.4z
				"/>
			<path class="st5" d="M58.1,50.9l-7.3,7.3c-1.3,1.3-1.9,3.2-1.4,5c0.5,1.8,1.9,3.2,3.7,3.7c1.8,0.5,3.7-0.1,5-1.4l7.3-7.3
				c1.3-1.3,1.9-3.2,1.4-5s-1.9-3.2-3.7-3.7C61.3,49.1,59.4,49.6,58.1,50.9z"/>
			<path class="st5" d="M20.5,138.8c-2.8,0-5.1,2.3-5.1,5.1v10.3c0,2.8,2.3,5.1,5.1,5.1s5.1-2.3,5.1-5.1v-10.3
				C25.6,141.1,23.3,138.8,20.5,138.8z"/>
			<path class="st5" d="M58.1,232.7c-2-1.9-5.2-1.9-7.2,0.1c-2,2-2,5.2-0.1,7.2l7.3,7.3c2,1.9,5.2,1.9,7.2-0.1c2-2,2-5.2,0.1-7.2
				L58.1,232.7z"/>
			<path class="st5" d="M154.1,272.5h-10.3c-2.8,0-5.1,2.3-5.1,5.1s2.3,5.1,5.1,5.1h10.3c2.8,0,5.1-2.3,5.1-5.1
				S157,272.5,154.1,272.5z"/>
			<path class="st5" d="M239.9,232.7l-7.3,7.3c-1.3,1.3-1.9,3.2-1.4,5c0.5,1.8,1.9,3.2,3.7,3.7c1.8,0.5,3.7-0.1,5-1.4l7.3-7.3
				c1.9-2,1.9-5.2-0.1-7.2C245.1,230.8,241.9,230.7,239.9,232.7z"/>
			<path class="st5" d="M277.5,138.8c-2.8,0-5.1,2.3-5.1,5.1v10.3c0,2.8,2.3,5.1,5.1,5.1s5.1-2.3,5.1-5.1v-10.3
				C282.7,141.1,280.4,138.8,277.5,138.8z"/>
			<path class="st5" d="M239.9,50.9c-2-1.9-5.2-1.9-7.2,0.1c-2,2-2,5.2-0.1,7.2l7.3,7.3c2,1.9,5.2,1.9,7.2-0.1c2-2,2-5.2,0.1-7.2
				L239.9,50.9z"/>
		</g>
	</g>
</g>
<g id="Layer_2">
	<g id="_x34_4-18Plus_movie">
		<g>
			<path class="st3" d="M119.6,175.5v-43.3h-10v-11.1h23.8v54.4H119.6L119.6,175.5z"/>
		</g>
		<g>
			<path class="st3" d="M185.3,135.2c0,4.7-2.6,8.9-6.8,11.3c6,2.5,9.7,7.7,9.7,13.7c0,9.8-8.7,16-22.3,16
				c-13.6,0-22.3-6.1-22.3-15.8c0-6.2,4-11.5,10.3-14c-4.6-2.6-7.5-6.9-7.5-11.6c0-8.7,7.6-14.2,19.4-14.2
				C177.8,120.6,185.3,126.2,185.3,135.2z M156.6,159c0,4.6,3.3,7.1,9.2,7.1s9.3-2.5,9.3-7.1c0-4.5-3.3-7.1-9.3-7.1
				C159.9,151.9,156.6,154.5,156.6,159z M158,135.9c0,3.9,2.8,6.1,7.8,6.1c5,0,7.8-2.2,7.8-6.1c0-4-2.8-6.3-7.8-6.3
				C160.8,129.6,158,131.9,158,135.9z"/>
		</g>
		<g>
			<path class="st3" d="M211.1,127.3c2.3,6.8,3.5,13.9,3.5,21.1c0,36.3-29.5,65.8-65.8,65.8s-65.8-29.5-65.8-65.8
				c0-36.3,29.5-65.8,65.8-65.8c7.2,0,14.3,1.2,21.1,3.5V71.4c-6.8-1.9-13.9-2.8-21.1-2.8c-44,0-79.8,35.8-79.8,79.8
				s35.8,79.8,79.8,79.8s79.8-35.8,79.8-79.8c0-7.2-1-14.3-2.8-21.1C225.8,127.3,211.1,127.3,211.1,127.3z"/>
		</g>
		<g>
			<polygon class="st3" points="207.2,90 207.2,74.7 196.2,74.7 196.2,90 181,90 181,101 196.2,101 196.2,116.3 207.2,116.3 
				207.2,101 222.5,101 222.5,90 			"/>
		</g>
	</g>
</g>
</svg>
