<svg id="Capa_1" enable-background="new 0 0 512 512" height="512" viewBox="0 0 512 512" width="512" xmlns="http://www.w3.org/2000/svg"><g><path d="m206 367c0 2.656.705 5.264 2.043 7.559 10.061 17.247 27.989 27.544 47.957 27.544s37.896-10.297 47.957-27.544c1.338-2.295 2.043-4.902 2.043-7.559v-35h-100z"/><path d="m384.736 373.117-48.736-12.577v6.46c0 7.957-2.119 15.797-6.128 22.672-15.5 26.57-43.114 42.431-73.872 42.431s-58.372-15.86-73.87-42.428c-4.011-6.878-6.13-14.718-6.13-22.675v-6.46l-48.736 12.577c-50.791 13.108-86.264 58.898-86.264 111.353v12.53c0 8.284 6.716 15 15 15h55v-40c0-8.284 6.716-15 15-15s15 6.716 15 15v40h230v-40c0-8.284 6.716-15 15-15s15 6.716 15 15v40h55c8.284 0 15-6.716 15-15v-12.53c0-52.455-35.473-98.245-86.264-111.353z"/><path d="m467 0h-422c-24.813 0-45 20.187-45 45v212c0 24.813 20.187 45 45 45h422c24.813 0 45-20.187 45-45v-212c0-24.813-20.187-45-45-45zm-332.532 215.913c-11.463.063-19.283.093-24.67.093-11.169 0-11.886-.123-12.966-.309-7.201-1.234-12.465-7.478-12.465-14.784v-99.916c0-8.284 6.716-15 15-15s15 6.716 15 15v84.994c6-.012 13.148-.04 19.933-.078h.086c8.245 0 14.952 6.66 14.998 14.916.046 8.284-6.632 15.037-14.916 15.084zm69.921-14.916c0 8.284-6.716 15-15 15s-15-6.716-15-15v-100c0-8.284 6.716-15 15-15s15 6.716 15 15zm125.341-95.088-32.651 98.286c-.011.034-.022.068-.034.103-2.363 6.948-8.882 11.649-16.222 11.698-.039.001-.078.001-.116.001-7.293 0-13.817-4.602-16.261-11.481-.012-.034-.024-.067-.036-.102l-34.19-98.498c-2.717-7.826 1.425-16.373 9.251-19.09 7.827-2.712 16.373 1.426 19.089 9.252l21.882 63.038 20.817-62.664c2.612-7.863 11.102-12.118 18.964-9.507 7.863 2.612 12.119 11.103 9.507 18.964zm79.796 30.088c8.284 0 15 6.716 15 15s-6.716 15-15 15h-24.029v20h27.136c8.284 0 15 6.716 15 15s-6.716 15-15 15h-42.136c-8.284 0-15-6.716-15-15v-100c0-8.284 6.716-15 15-15h42.136c8.284 0 15 6.716 15 15s-6.716 15-15 15h-27.136v20z"/></g></svg>