<svg width="20" height="20" viewBox="0 0 20 20" fill="none" xmlns="http://www.w3.org/2000/svg">
<path d="M18.617 8.72342H18.5106V7.65959C18.5106 6.42555 17.5957 5.40427 16.383 5.23406V3.93619C16.383 2.59576 15.2766 1.48938 13.9362 1.48938H2.59574C1.19149 1.48938 0.0212766 2.61704 0 4.04257V16.0638C0 17.4043 1.10638 18.5107 2.44681 18.5107H16.0638C17.4043 18.5107 18.5106 17.4043 18.5106 16.0638V14.8936H18.617C19.383 14.8936 20 14.2766 20 13.5107V10.1064C20 9.34044 19.383 8.72342 18.617 8.72342ZM1.48936 4.08512C1.48936 3.4681 2 2.97874 2.59574 2.97874H13.9149C14.4468 2.97874 14.8723 3.40427 14.8723 3.93619V5.21278H2.59574C2 5.21278 1.48936 4.70215 1.48936 4.08512ZM18.5106 13.4043H15C14.1277 13.4043 13.4043 12.6809 13.4043 11.8085C13.4043 10.9362 14.1277 10.2128 15 10.2128H18.5106V13.4043Z" fill="#22A49C"/>
<path d="M15.4256 12.8723C16.0132 12.8723 16.4895 12.3961 16.4895 11.8085C16.4895 11.221 16.0132 10.7447 15.4256 10.7447C14.8381 10.7447 14.3618 11.221 14.3618 11.8085C14.3618 12.3961 14.8381 12.8723 15.4256 12.8723Z" fill="#22A49C"/>
</svg>
